<svg xmlns="http://www.w3.org/2000/svg" viewBox="-96.3 -93.5 186.7 186.1" width="187" height="187" role="img"><polygon points="76.34,0.00 76.03,-3.98 75.45,-7.93 74.62,-11.82 73.56,-15.64 72.28,-19.37 70.79,-23.00 69.13,-26.53 67.29,-29.96 65.29,-33.27 63.14,-36.46 60.87,-39.53 58.46,-42.48 55.95,-45.31 53.34,-48.02 50.63,-50.63 47.84,-53.13 44.98,-55.54 42.04,-57.87 39.04,-60.12 35.98,-62.31 32.84,-64.45 29.62,-66.53 26.31,-68.54 22.90,-70.49 19.38,-72.33 15.74,-74.06 11.98,-75.63 8.09,-76.99 4.09,-78.11 0.00,-78.92 -4.16,-79.39 -8.35,-79.47 -12.53,-79.14 -16.65,-78.35 -20.66,-77.12 -24.51,-75.44 -28.15,-73.35 -31.55,-70.87 -34.68,-68.07 -37.53,-65.00 -40.10,-61.75 -42.41,-58.38 -44.50,-54.96 -46.42,-51.56 -48.23,-48.23 -49.99,-45.01 -51.76,-41.92 -53.61,-38.95 -55.58,-36.10 -57.72,-33.32 -60.02,-30.58 -62.50,-27.83 -65.11,-25.00 -67.82,-22.03 -70.54,-18.90 -73.18,-15.56 -75.67,-11.98 -77.88,-8.19 -79.74,-4.18 -81.13,-0.00 -82.00,4.30 -82.29,8.65 -81.98,12.98 -81.05,17.23 -79.53,21.31 -77.47,25.17 -74.95,28.77 -72.03,32.07 -68.83,35.07 -65.43,37.77 -61.93,40.22 -58.42,42.44 -54.96,44.51 -51.62,46.48 -48.42,48.42 -45.36,50.38 -42.45,52.42 -39.65,54.58 -36.92,56.86 -34.21,59.26 -31.47,61.76 -28.63,64.31 -25.67,66.86 -22.53,69.34 -19.20,71.67 -15.68,73.76 -11.97,75.56 -8.09,76.98 -4.09,77.99 -0.00,78.55 4.12,78.64 8.23,78.27 12.27,77.47 16.21,76.25 20.01,74.69 23.66,72.83 27.15,70.73 30.48,68.45 33.65,66.05 36.70,63.57 39.64,61.05 42.51,58.51 45.31,55.96 48.08,53.40 50.81,50.81 53.52,48.19 56.20,45.51 58.84,42.75 61.40,39.87 63.86,36.87 66.18,33.72 68.34,30.43 70.29,26.98 72.01,23.40 73.47,19.69 74.64,15.86 75.52,11.96 76.09,8.00 76.36,4.00" fill="#f3f7ee" stroke="#4d7c3a" stroke-width="2" stroke-linejoin="round"/><circle cx="0.00" cy="0.00" r="75.00" fill="none" stroke="#1a56c4" stroke-width="1.6" stroke-dasharray="5,4"/><line x1="0.00" y1="0.00" x2="75.00" y2="0.00" stroke="#1a56c4" stroke-width="1.4" stroke-dasharray="3,3"/><text x="37.50" y="-9.92" text-anchor="middle" font-size="12" paint-order="stroke" stroke="#fff" stroke-width="3" fill="#333">10cm</text></svg>