<svg xmlns="http://www.w3.org/2000/svg" viewBox="-198.7 -107.5 422.4 233.4" width="422.4" height="233.4" preserveAspectRatio="xMidYMid meet" role="img"><polygon points="-170.66,74.00 -31.34,74.00 -116.79,-74.00" fill="#ffffff" stroke="#1a56c4" stroke-width="2"/><polygon points="193.31,42.52 64.14,94.71 87.92,-74.53" fill="#ffffff" stroke="#1a56c4" stroke-width="2"/><line x1="-101.00" y1="69.50" x2="-101.00" y2="78.50" stroke="#1a56c4" stroke-width="1.6"/><line x1="130.41" y1="72.78" x2="127.04" y2="64.44" stroke="#1a56c4" stroke-width="1.6"/><path d="M -158.66 74.00 A 12 12 0 0 0 -166.55 62.72" fill="none" stroke="#1a56c4" stroke-width="1.3"/><path d="M 185.28 33.60 A 12 12 0 0 0 182.18 47.01" fill="none" stroke="#1a56c4" stroke-width="1.3"/><path d="M -37.34 63.61 A 12 12 0 0 0 -43.34 74.00" fill="none" stroke="#1a56c4" stroke-width="1.3"/><path d="M -39.34 60.14 A 16 16 0 0 0 -47.34 74.00" fill="none" stroke="#1a56c4" stroke-width="1.3"/><path d="M 75.26 90.21 A 12 12 0 0 0 65.81 82.82" fill="none" stroke="#1a56c4" stroke-width="1.3"/><path d="M 78.97 88.71 A 16 16 0 0 0 66.36 78.86" fill="none" stroke="#1a56c4" stroke-width="1.3"/><text x="-180.98" y="86.33" text-anchor="middle" font-size="13" paint-order="stroke" stroke="#fff" stroke-width="3" fill="#1a56c4">A</text><text x="-20.48" y="85.57" text-anchor="middle" font-size="13" paint-order="stroke" stroke="#fff" stroke-width="3" fill="#1a56c4">B</text><text x="-118.17" y="-82.51" text-anchor="middle" font-size="13" paint-order="stroke" stroke="#fff" stroke-width="3" fill="#1a56c4">C</text><text x="205.84" y="50.40" text-anchor="middle" font-size="13" paint-order="stroke" stroke="#fff" stroke-width="3" fill="#1a56c4">D</text><text x="56.75" y="109.82" text-anchor="middle" font-size="13" paint-order="stroke" stroke="#fff" stroke-width="3" fill="#1a56c4">E</text><text x="84.36" y="-82.61" text-anchor="middle" font-size="13" paint-order="stroke" stroke="#fff" stroke-width="3" fill="#1a56c4">F</text></svg>