<svg xmlns="http://www.w3.org/2000/svg" viewBox="-47.0 -194.5 295.1 236.0" width="296" height="237" role="img"><polygon points="0.00,-126.00 180.00,-126.00 218.18,-164.18 38.18,-164.18" fill="#dce8fb" stroke="#1a56c4" stroke-width="2"/><polygon points="0.00,0.00 180.00,0.00 180.00,-126.00 0.00,-126.00" fill="#eef4ff" stroke="#1a56c4" stroke-width="2"/><polygon points="180.00,0.00 218.18,-38.18 218.18,-164.18 180.00,-126.00" fill="#e6effd" stroke="#1a56c4" stroke-width="2"/><line x1="0.00" y1="0.00" x2="180.00" y2="0.00" stroke="#1a56c4" stroke-width="2"/><line x1="0.00" y1="0.00" x2="0.00" y2="-126.00" stroke="#1a56c4" stroke-width="2"/><line x1="180.00" y1="0.00" x2="180.00" y2="-126.00" stroke="#1a56c4" stroke-width="2"/><line x1="218.18" y1="-38.18" x2="218.18" y2="-164.18" stroke="#1a56c4" stroke-width="1.4" stroke-dasharray="4,4"/><line x1="38.18" y1="-38.18" x2="38.18" y2="-164.18" stroke="#1a56c4" stroke-width="1.4" stroke-dasharray="4,4"/><line x1="180.00" y1="0.00" x2="218.18" y2="-38.18" stroke="#1a56c4" stroke-width="1.4" stroke-dasharray="4,4"/><line x1="218.18" y1="-38.18" x2="38.18" y2="-38.18" stroke="#1a56c4" stroke-width="1.4" stroke-dasharray="4,4"/><line x1="38.18" y1="-38.18" x2="0.00" y2="0.00" stroke="#1a56c4" stroke-width="1.4" stroke-dasharray="4,4"/><line x1="38.18" y1="-38.18" x2="0.00" y2="0.00" stroke="#1a56c4" stroke-width="1.4" stroke-dasharray="4,4"/><line x1="0.00" y1="-126.00" x2="180.00" y2="-126.00" stroke="#C0392B" stroke-width="3.4"/><text x="90.00" y="25.10" text-anchor="middle" font-size="15" paint-order="stroke" stroke="#fff" stroke-width="3" fill="#333">10cm</text><text x="213.09" y="0.01" text-anchor="middle" font-size="15" paint-order="stroke" stroke="#fff" stroke-width="3" fill="#333">6cm</text><text x="-20.00" y="-57.90" text-anchor="middle" font-size="15" paint-order="stroke" stroke="#fff" stroke-width="3" fill="#333">7cm</text><text x="-12.06" y="-126.43" text-anchor="middle" font-size="13" paint-order="stroke" stroke="#fff" stroke-width="3" fill="#1a56c4">A</text><text x="191.05" y="-128.42" text-anchor="middle" font-size="13" paint-order="stroke" stroke="#fff" stroke-width="3" fill="#1a56c4">B</text><text x="228.57" y="-167.58" text-anchor="middle" font-size="13" paint-order="stroke" stroke="#fff" stroke-width="3" fill="#1a56c4">C</text><text x="29.69" y="-169.60" text-anchor="middle" font-size="13" paint-order="stroke" stroke="#fff" stroke-width="3" fill="#1a56c4">D</text><text x="-10.39" y="12.24" text-anchor="middle" font-size="13" paint-order="stroke" stroke="#fff" stroke-width="3" fill="#1a56c4">E</text><text x="196.34" y="22.66" text-anchor="middle" font-size="11" paint-order="stroke" stroke="#fff" stroke-width="3" fill="#1a56c4">F</text><text x="230.24" y="-28.91" text-anchor="middle" font-size="13" paint-order="stroke" stroke="#fff" stroke-width="3" fill="#1a56c4">G</text><text x="27.13" y="-26.92" text-anchor="middle" font-size="13" paint-order="stroke" stroke="#fff" stroke-width="3" fill="#1a56c4">H</text></svg>