<svg xmlns="http://www.w3.org/2000/svg" viewBox="-14.0 -14.0 280.0 196.0" width="280" height="196" role="img"><polygon points="18.00,66.00 66.00,66.00 66.00,18.00 18.00,18.00" fill="#ffffff" stroke="#1a56c4" stroke-width="2"/><polygon points="126.00,15.00 102.62,55.50 149.38,55.50" fill="#ffffff" stroke="#1a56c4" stroke-width="2"/><polygon points="210.00,42.00 237.00,42.00 237.00,24.00 219.00,24.00 210.00,42.00 183.00,42.00 183.00,60.00 201.00,60.00" fill="#ffffff" stroke="#1a56c4" stroke-width="2"/><polygon points="15.00,144.00 69.00,144.00 42.00,108.00 15.00,108.00" fill="#ffffff" stroke="#1a56c4" stroke-width="2"/><polygon points="117.00,153.00 135.00,153.00 135.00,135.00 153.00,135.00 153.00,117.00 135.00,117.00 135.00,99.00 117.00,99.00 117.00,117.00 99.00,117.00 99.00,135.00 117.00,135.00" fill="#ffffff" stroke="#1a56c4" stroke-width="2"/><text x="12.00" y="16.42" text-anchor="middle" font-size="13" paint-order="stroke" stroke="#fff" stroke-width="3" fill="#333">ア</text><text x="96.00" y="16.42" text-anchor="middle" font-size="13" paint-order="stroke" stroke="#fff" stroke-width="3" fill="#333">イ</text><text x="180.00" y="16.42" text-anchor="middle" font-size="13" paint-order="stroke" stroke="#fff" stroke-width="3" fill="#333">ウ</text><text x="12.00" y="100.42" text-anchor="middle" font-size="13" paint-order="stroke" stroke="#fff" stroke-width="3" fill="#333">エ</text><text x="96.00" y="100.42" text-anchor="middle" font-size="13" paint-order="stroke" stroke="#fff" stroke-width="3" fill="#333">オ</text></svg>