<svg xmlns="http://www.w3.org/2000/svg" viewBox="-14.0 -14.0 364.0 196.0" width="364" height="196" role="img"><polygon points="15.00,69.00 69.00,69.00 69.00,57.00 36.00,57.00 36.00,15.00 15.00,15.00" fill="#ffffff" stroke="#1a56c4" stroke-width="2"/><polygon points="117.00,69.00 135.00,69.00 135.00,39.00 150.00,39.00 126.00,15.00 102.00,39.00 117.00,39.00" fill="#ffffff" stroke="#1a56c4" stroke-width="2"/><polygon points="183.00,15.00 237.00,15.00 237.00,30.00 205.50,30.00 237.00,54.00 237.00,69.00 183.00,69.00 183.00,54.00 214.50,54.00 183.00,30.00" fill="#ffffff" stroke="#1a56c4" stroke-width="2"/><polygon points="273.00,63.00 315.00,63.00 294.00,16.50" fill="#ffffff" stroke="#1a56c4" stroke-width="2"/><polygon points="18.00,150.00 66.00,150.00 66.00,102.00 18.00,102.00" fill="#ffffff" stroke="#1a56c4" stroke-width="2"/><polygon points="99.00,144.00 153.00,144.00 126.00,108.00 99.00,108.00" fill="#ffffff" stroke="#1a56c4" stroke-width="2"/><polygon points="210.00,99.00 184.32,117.66 194.13,147.84 225.87,147.84 235.68,117.66" fill="#ffffff" stroke="#1a56c4" stroke-width="2"/><polygon points="285.00,153.00 303.00,153.00 303.00,135.00 321.00,135.00 321.00,117.00 303.00,117.00 303.00,99.00 285.00,99.00 285.00,117.00 267.00,117.00 267.00,135.00 285.00,135.00" fill="#ffffff" stroke="#1a56c4" stroke-width="2"/><text x="12.00" y="16.42" text-anchor="middle" font-size="13" paint-order="stroke" stroke="#fff" stroke-width="3" fill="#333">ア</text><text x="96.00" y="16.42" text-anchor="middle" font-size="13" paint-order="stroke" stroke="#fff" stroke-width="3" fill="#333">イ</text><text x="180.00" y="16.42" text-anchor="middle" font-size="13" paint-order="stroke" stroke="#fff" stroke-width="3" fill="#333">ウ</text><text x="266.00" y="18.08" text-anchor="middle" font-size="12" paint-order="stroke" stroke="#fff" stroke-width="3" fill="#333">エ</text><text x="12.00" y="100.42" text-anchor="middle" font-size="13" paint-order="stroke" stroke="#fff" stroke-width="3" fill="#333">オ</text><text x="96.00" y="100.42" text-anchor="middle" font-size="13" paint-order="stroke" stroke="#fff" stroke-width="3" fill="#333">カ</text><text x="180.00" y="100.42" text-anchor="middle" font-size="13" paint-order="stroke" stroke="#fff" stroke-width="3" fill="#333">キ</text><text x="264.00" y="100.42" text-anchor="middle" font-size="13" paint-order="stroke" stroke="#fff" stroke-width="3" fill="#333">ク</text></svg>